<svg width="800" height="800" viewBox="0 0 1024 1024" xmlns="http://www.w3.org/2000/svg"><path d="M560 240v19.36a344.56 344.56 0 0 0-96 0V240a32 32 0 0 1 32-32h32a32 32 0 0 1 32 32zM878.56 766.24C872 737.36 852.08 694.88 832 648c0 0-124.88-40-320-40s-320 40-320 40c-20.08 46.88-40 89.36-46.56 118.24a40 40 0 0 0 46.56 48.48 1572 1572 0 0 1 320-34.72 1572 1572 0 0 1 320 34.72 40 40 0 0 0 46.56-48.48z" fill="#CB525F" /><path d="M512 256c-192 0-360 152-320 392 0 0 124.88-40 320-40s320 40 320 40c40-240-128-392-320-392z" fill="#FC9C5E" /><path d="M313.52 622.32a1383.28 1383.28 0 0 1 396.96 0C725.36 397.2 625.52 256 512 256S298.64 397.2 313.52 622.32z" fill="#FFD53E" /><path d="M448 504l128 0 0 48-128 0 0-48Z" fill="#FFFFFF" /></svg>
